{"title":"Run All Night (2015) 720p x265 HEVC - YIFY &amp; NTG","uid":12027066,"size":405266632,"categoryP":"video","categoryS":"hd___movies","magnet":"?xt=urn:btih:6cfe61b0331331b0b6c1b1a934a359981c1129fe&amp;dn=Run+All+Night+%282015%29+720p+x265+HEVC+-+YIFY+%26amp%3B+NTG&amp;tr=udp%3A%2F%2Ftracker.openbittorrent.com%3A80&amp;tr=udp%3A%2F%2Fopen.demonii.com%3A1337&amp;tr=udp%3A%2F%2Ftracker.coppersurfer.tk%3A6969&amp;tr=udp%3A%2F%2Fexodus.desync.com%3A6969","seeders":0,"leechers":1,"uploader":"new_tech_guy","files":1,"time":1434500900,"description":"&lt;a href=&quot;http://www.imdb.com/title/tt2199571/&quot;&gt;http://www.imdb.com/title/tt2199571/&lt;/a&gt;\n\n\nIMDB RATING: 6.8\n\nFORMAT.......................: MP4\nCODEC........................: x265 HEVC (original x264)\nGENRE........................: Action / Crime\nFILE SIZE....................: 386.49 MB (47% of original 814.52 MB)\nRESOLUTION...................: 1280*536\nFRAME RATE...................: 23.976 fps\nLANGUAGE.....................: English\nRUNTIME......................: 114 mins\n\nThis video is ReRip of original Run All Night 2015 posted by YIFY.\nOn this video you save 53% disk space but lose 10% quaility.\nAudio is same as on original. I also add english subtitles.\n\nThis video is posted for testing purposes only!\nAll credits for upload goes to YIFY!\n\nEnjoy\n\nMediaInfo:\nGeneral\nComplete name : X:Run All Night (2015)Run.All.Night.2015.720p.BluRay.x265.HEVC.YIFY.NTG.mp4\nFormat : hvc1\nCodec ID : hvc1\nFile size : 386 MiB\nDuration : 1h 54mn\nOverall bit rate mode : Variable\nOverall bit rate : 473 Kbps\nEncoded date : UTC 2015-06-16 14:06:48\nTagged date : UTC 2015-06-16 14:06:48\nWriting application : Hybrid 2015.05.10.1\n\nVideo\nID : 1\nFormat : HEVC\nFormat/Info : High Efficiency Video Coding\nFormat profile : &lt;a class=&quot;__cf_email__&quot; href=&quot;/cdn-cgi/l/email-protection&quot; data-cfemail=&quot;d79ab6beb9979be4f9e6&quot;&gt;[email&amp;#160;protected]&lt;/a&gt;&lt;script data-cfhash='f9e31' type=&quot;text/javascript&quot;&gt;\n/* &lt;![CDATA[ */!function(){try{var t=&quot;currentScript&quot;in document?document.currentScript:function(){for(var t=document.getElementsByTagName(&quot;script&quot;),e=t.length;e--;)if(t[e].getAttribute(&quot;data-cfhash&quot;))return t[e]}();if(t&amp;&amp;t.previousSibling){var e,r,n,i,c=t.previousSibling,a=c.getAttribute(&quot;data-cfemail&quot;);if(a){for(e=&quot;&quot;,r=parseInt(a.substr(0,2),16),n=2;a.length-n;n+=2)i=parseInt(a.substr(n,2),16)^r,e+=String.fromCharCode(i);e=document.createTextNode(e),c.parentNode.replaceChild(e,c)}t.parentNode.removeChild(t);}}catch(u){}}()/* ]]&gt; */&lt;/script&gt;@Main\nCodec ID : hvc1\nCodec ID/Info : High Efficiency Video Coding\nDuration : 1h 54mn\nBit rate : 375 Kbps\nMaximum bit rate : 2 628 Kbps\nWidth : 1 280 pixels\nHeight : 536 pixels\nDisplay aspect ratio : 2.40:1\nFrame rate mode : Constant\nFrame rate : 23.976 fps\nColor space : YUV\nChroma subsampling : 4:2:0\nBit depth : 8 bits\nBits/(Pixel*Frame) : 0.023\nStream size : 306 MiB (79%)\nWriting library : x265 1.6+411-3700169eb622:[Windows][GCC 4.9.2][64 bit]\nEncoding settings : wpp / ctu=64 / min-cu-size=8 / max-tu-size=32 / tu-intra-depth=1 / tu-inter-depth=1 / me=1 / subme=2 / merange=57 / no-rect / no-amp / max-merge=2 / temporal-mvp / no-early-skip / rdpenalty=0 / no-tskip / no-tskip-fast / strong-intra-smoothing / no-lossless / cu-lossless / no-constrained-intra / no-fast-intra / no-open-gop / no-temporal-layers / interlace=0 / keyint=250 / min-keyint=23 / scenecut=40 / rc-lookahead=20 / lookahead-slices=0 / bframes=4 / bframe-bias=0 / b-adapt=2 / ref=3 / weightp / no-weightb / aq-mode=1 / aq-strength=1.00 / cbqpoffs=0 / crqpoffs=0 / rd=3 / psy-rd=1.00 / rdoq-level=0 / psy-rdoq=0.00 / signhide / deblock / sao / no-sao-non-deblock / b-pyramid / cutree / rc=crf / crf=28.0 / qcomp=0.60 / qpmin=0 / qpmax=51 / qpstep=4 / ipratio=1.40 / pbratio=1.30\nEncoded date : UTC 2015-06-16 14:06:48\nTagged date : UTC 2015-06-16 14:07:06\nColor range : Limited\nMatrix coefficients : BT.601\n\nAudio\nID : 2\nFormat : AAC\nFormat/Info : Advanced Audio Codec\nFormat profile : LC\nCodec ID : 40\nDuration : 1h 54mn\nBit rate mode : Variable\nBit rate : 93.7 Kbps\nMaximum bit rate : 104 Kbps\nChannel(s) : 2 channels\nChannel positions : Front: L R\nSampling rate : 48.0 KHz\nCompression mode : Lossy\nStream size : 76.6 MiB (20%)\nTitle : AAC#audio:lang=&lt;a class=&quot;__cf_email__&quot; href=&quot;/cdn-cgi/l/email-protection&quot; data-cfemail=&quot;e98c87a9aeb9a8aad9c7dcc7d8c4adacbfc49b8c9fdcdadbd9&quot;&gt;[email&amp;#160;protected]&lt;/a&gt;&lt;script data-cfhash='f9e31' type=&quot;text/javascript&quot;&gt;\n/* &lt;![CDATA[ */!function(){try{var t=&quot;currentScript&quot;in document?document.currentScript:function(){for(var t=document.getElementsByTagName(&quot;script&quot;),e=t.length;e--;)if(t[e].getAttribute(&quot;data-cfhash&quot;))return t[e]}();if(t&amp;&amp;t.previousSibling){var e,r,n,i,c=t.previousSibling,a=c.getAttribute(&quot;data-cfemail&quot;);if(a){for(e=&quot;&quot;,r=parseInt(a.substr(0,2),16),n=2;a.length-n;n+=2)i=parseInt(a.substr(n,2),16)^r,e+=String.fromCharCode(i);e=document.createTextNode(e),c.parentNode.replaceChild(e,c)}t.parentNode.removeChild(t);}}catch(u){}}()/* ]]&gt; */&lt;/script&gt;\nLanguage : English\nEncoded date : UTC 2015-06-16 14:06:59\nTagged date : UTC 2015-06-16 14:07:06\n\nText\nID : 3\nFormat : Timed Text\nCodec ID : tx3g\nDuration : 1h 47mn\nBit rate mode : Variable\nBit rate : 57 bps\nStream size : 45.3 KiB (0%)\nTitle : *&lt;a class=&quot;__cf_email__&quot; href=&quot;/cdn-cgi/l/email-protection&quot; data-cfemail=&quot;90c4c4c8d0d7c0d1d3a0bea5bea1bdd4d5c6bde2f5e6a5a3a2a0&quot;&gt;[email&amp;#160;protected]&lt;/a&gt;&lt;script data-cfhash='f9e31' type=&quot;text/javascript&quot;&gt;\n/* &lt;![CDATA[ */!function(){try{var t=&quot;currentScript&quot;in document?document.currentScript:function(){for(var t=document.getElementsByTagName(&quot;script&quot;),e=t.length;e--;)if(t[e].getAttribute(&quot;data-cfhash&quot;))return t[e]}();if(t&amp;&amp;t.previousSibling){var e,r,n,i,c=t.previousSibling,a=c.getAttribute(&quot;data-cfemail&quot;);if(a){for(e=&quot;&quot;,r=parseInt(a.substr(0,2),16),n=2;a.length-n;n+=2)i=parseInt(a.substr(n,2),16)^r,e+=String.fromCharCode(i);e=document.createTextNode(e),c.parentNode.replaceChild(e,c)}t.parentNode.removeChild(t);}}catch(u){}}()/* ]]&gt; */&lt;/script&gt;\nEncoded date : UTC 2015-06-16 14:07:06\nTagged date : UTC 2015-06-16 14:07:06","torrent":{"xt":"urn:btih:6cfe61b0331331b0b6c1b1a934a359981c1129fe","amp;dn":"Run+All+Night+%282015%29+720p+x265+HEVC+-+YIFY+%26amp%3B+NTG","amp;tr":["udp%3A%2F%2Ftracker.openbittorrent.com%3A80","udp%3A%2F%2Fopen.demonii.com%3A1337","udp%3A%2F%2Ftracker.coppersurfer.tk%3A6969","udp%3A%2F%2Fexodus.desync.com%3A6969"],"infoHash":"6cfe61b0331331b0b6c1b1a934a359981c1129fe","infoHashBuffer":{"type":"Buffer","data":[108,254,97,176,51,19,49,176,182,193,177,169,52,163,89,152,28,17,41,254]},"announce":[],"urlList":[]}}